<svg width="180" height="180" viewBox="0 0 180 180" xmlns="http://www.w3.org/2000/svg"><rect width="180" height="180" rx="0" fill="#1E2150"/><g transform="translate(90.000 98.523) scale(1.3538)" fill="#FFFFFF"><g transform="rotate(0)"><path d="M0 -46 C11 -40 23 -32 23 -25 C23 -18 11 -10 0 -4 C-11 -10 -23 -18 -23 -25 C-23 -32 -11 -40 0 -46 Z"/></g><g transform="rotate(120)"><path d="M0 -46 C11 -40 23 -32 23 -25 C23 -18 11 -10 0 -4 C-11 -10 -23 -18 -23 -25 C-23 -32 -11 -40 0 -46 Z"/></g><g transform="rotate(240)"><path d="M0 -46 C11 -40 23 -32 23 -25 C23 -18 11 -10 0 -4 C-11 -10 -23 -18 -23 -25 C-23 -32 -11 -40 0 -46 Z"/></g></g></svg>